Simulation
nRows=28
nColumns=15
endheader
time  TH_x TH_y TH_z SC_y  SC_z  SC_x  AC_y  AC_z  AC_x  GH_y  GH_z  GH_yy  EL_x  PS_y
0.0  0.000000  0.000000  0.000000  -26.529140435877743  -1.0958262653890083  1.180163930060806  50.54260904493232  6.074216429871385  -3.34116872043964  21.578990217367455  12.919639776758128  23.243993495963004  27.040892386784183  0.000000
0.039  0.000000  0.000000  0.000000  -26.467363432979745  -0.7060872011754532  1.380101314022994  50.171065263886916  6.33779538936628  -3.4291780212734544  20.628007795381265  13.35643428425014  23.94712230160143  26.682524299153823  0.000000
0.078  0.000000  0.000000  0.000000  -26.315361943818576  -0.547436498416924  1.5568253682254027  49.9230308650931  6.245113437397746  -3.590606096476955  20.200424502189477  13.708543366214872  24.098767278836362  26.253745442440525  0.000000
0.11699999999999999  0.000000  0.000000  0.000000  -26.146028831894206  -0.5294864926607615  1.7248566220452473  49.83714262506883  6.012188699512815  -3.7477696399433924  20.274910256371363  13.99147468036478  23.7407742885584  25.895181873874503  0.000000
0.156  0.000000  0.000000  0.000000  -25.949722997436123  -0.6163034367510237  1.8495140934175922  49.84477500590648  5.787452524756216  -3.8417744929288813  20.894395682302253  14.262137999066685  22.736312356968188  25.58733181984592  0.000000
0.195  0.000000  0.000000  0.000000  -25.782070587920888  -0.7493108992135986  1.9304952717592154  49.98128626230548  5.63919371320107  -3.8764646878847797  22.191900134141772  14.623101574566503  20.94331278102826  25.327362375058087  0.000000
0.23399999999999999  0.000000  0.000000  0.000000  -25.660710904799565  -0.8736672663067269  1.97774829651754  50.17193003437985  5.585873923979292  -3.842958653403549  24.1909081120955  15.138670345825663  18.313885561324426  25.1293025250591  0.000000
0.273  0.000000  0.000000  0.000000  -25.61130865194399  -0.9679154925001588  2.0095841593521775  50.40071579230416  5.623117178238311  -3.7634254895328105  26.868264603660553  15.879143307075285  14.861746318495234  24.97680919589848  0.000000
0.312  0.000000  0.000000  0.000000  -25.631472909339575  -1.0189821354783681  2.051293758428634  50.6425038395131  5.736528976685963  -3.6513007994481717  30.04446059239878  16.882581483735976  10.757400033923732  24.880015705831745  0.000000
0.351  0.000000  0.000000  0.000000  -25.703718965350532  -1.0245987056127401  2.128214785266791  50.9066966540621  5.899435737055693  -3.5193231394165467  33.44063566310736  18.170066227194994  6.274583363083062  24.828570779333603  0.000000
0.39  0.000000  0.000000  0.000000  -25.7937498589729  -0.9903723636887353  2.2508297428360944  51.19924749988787  6.099511344754933  -3.371007161707366  36.75710660138679  19.73225802119782  1.7109701199153293  24.8270483834115  0.000000
0.429  0.000000  0.000000  0.000000  -25.868974858742067  -0.9217096079297337  2.4229485441095413  51.53244473615362  6.325255576504017  -3.2057803402457923  39.75732403291328  21.54037724033224  -2.680700404048911  24.86978568355478  0.000000
0.46799999999999997  0.000000  0.000000  0.000000  -25.90388984846444  -0.8228207365444771  2.638114699754648  51.90469663374861  6.575023141873955  -3.026206119990938  42.33071623284268  23.554353393644252  -6.765458688743576  24.95258265241954  0.000000
0.507  0.000000  0.000000  0.000000  -25.883651327285783  -0.6930977917900891  2.8886483381844013  52.30479040693281  6.847781276161891  -2.8311568462108916  44.456231851517146  25.72711320526894  -10.485836242051313  25.056884567529533  0.000000
0.546  0.000000  0.000000  0.000000  -25.80730471751943  -0.5270932377650093  3.166541884449557  52.71588910253082  7.146188413210392  -2.625563495153716  46.18579265488  28.01454061241191  -13.863543177632787  25.16484199325809  0.000000
0.585  0.000000  0.000000  0.000000  -25.69483220574994  -0.3164496897752522  3.4714185454878907  53.11666357934412  7.467252246327291  -2.412952868086861  47.60328951175712  30.37391971443162  -16.95860444241249  25.256241991451432  0.000000
0.624  0.000000  0.000000  0.000000  -25.58246886888435  -0.05519248821984779  3.8081549214282444  53.48575726932966  7.805497740457401  -2.2019642755534687  48.81394364889947  32.77115113961948  -19.864088063150668  25.317399772177925  0.000000
0.663  0.000000  0.000000  0.000000  -25.51007550994544  0.26193251998859424  4.188613551298044  53.80681350661732  8.147637307919242  -1.9978357383157472  49.90840591437001  35.17798660797075  -22.65978410387633  25.337251901582736  0.000000
0.702  0.000000  0.000000  0.000000  -25.50012875894522  0.6372893118732668  4.627219554131182  54.075606006223886  8.480179673641187  -1.804601251118943  50.94307659294032  37.57201376228356  -25.38820371517307  25.31115853572958  0.000000
0.741  0.000000  0.000000  0.000000  -25.545364889383077  1.0693980678973278  5.137475693767213  54.29970386381769  8.790663864629627  -1.6206612031620886  51.91926321361061  39.93301778586797  -28.025630608381864  25.238473142688786  0.000000
0.78  0.000000  0.000000  0.000000  -25.61648364522689  1.553345370115463  5.725627465145454  54.492831194748156  9.075266822001037  -1.4423501948327397  52.8057845526604  42.242004628241574  -30.509379888843874  25.12437991979187  0.000000
0.819  0.000000  0.000000  0.000000  -25.686084723973625  2.0832293142103064  6.38806707011361  54.666193383340875  9.333755940257525  -1.2622116637471832  53.563096539614754  44.48139165040698  -32.76767248580347  24.979739425924166  0.000000
0.858  0.000000  0.000000  0.000000  -25.74178774700209  2.648484823106566  7.110501199366872  54.82373045864571  9.568028664308912  -1.0750739662806563  54.16832326173674  46.636652287194224  -34.758500877760824  24.82246162470257  0.000000
0.897  0.000000  0.000000  0.000000  -25.79012101297988  3.2349268187057425  7.869633708882963  54.96272207626451  9.778504427757989  -0.8764401245329456  54.617224414477135  48.69734054987749  -36.47341819316763  24.676683623041534  0.000000
0.9359999999999999  0.000000  0.000000  0.000000  -25.847991309223847  3.8289446832229754  8.642327369067024  55.0807175418491  9.966549781808949  -0.6641069764767535  54.92082654819894  50.65411079475376  -37.9316726416222  24.567712057353596  0.000000
0.975  0.000000  0.000000  0.000000  -25.930858451616682  4.419125349421969  9.413088350115215  55.17778674626904  10.134316602911158  -0.4373618382289467  55.094484307000414  52.497998974391265  -39.16124003209809  24.51029467522074  0.000000
1.014  0.000000  0.000000  0.000000  -26.04444847725704  4.999382093689826  10.176543534415874  55.25542812327923  10.285948460280238  -0.19886483019760248  55.15764899022429  54.22147643821406  -40.196956472603915  24.497444573314223  0.000000
1.053  0.000000  0.000000  0.000000  -26.187291723549905  5.568302181847041  10.934762673714959  55.31328268270443  10.424949724129592  0.048383703859007955  55.130317037639095  55.8190255356398  -41.07466045189086  24.50755500439613  0.000000
